REM COMMENT "Generated by IcecastMetadataRecorder https://github.com/eshaz/icecast-metadata-js"
REM BR "16"
REM METAINT "64"
REM DATE "2020-07-29T21:16:11.222Z"
TITLE "isics-all"
FILE "isics-all.mp3" WAVE
  TRACK 1 AUDIO
    TITLE "2020-07-29T21:35:17.678Z TO:1101 Polk County - Westcom Law Enforcement 1 FROM:1364"
    INDEX 01 19:06:34
  TRACK 2 AUDIO
    TITLE "2020-07-29T21:35:20.486Z TO:1101 Polk County - Westcom Law Enforcement 1 FROM:1004"
    INDEX 01 19:09:20
  TRACK 3 AUDIO
    TITLE "2020-07-29T21:35:23.294Z TO:18501 Boone County Law 1 FROM:899996"
    INDEX 01 19:12:05
  TRACK 4 AUDIO
    TITLE "2020-07-29T21:35:25.382Z TO:1101 Polk County - Westcom Law Enforcement 1 FROM:1364"
    INDEX 01 19:14:12
  TRACK 5 AUDIO
    TITLE "2020-07-29T21:35:29.558Z TO:1102 Polk County - Westcom Law Enforcement 2 FROM:1441"
    INDEX 01 19:18:25
  TRACK 6 AUDIO
    TITLE "2020-07-29T21:35:44.246Z TO:1101 Polk County - Westcom Law Enforcement 1 FROM:1004"
    INDEX 01 19:33:02
  TRACK 7 AUDIO
    TITLE "2020-07-29T21:35:46.406Z TO:18501 Boone County Law 1 FROM:UNKNOWN"
    INDEX 01 19:35:14
  TRACK 8 AUDIO
    TITLE "2020-07-29T21:35:47.774Z TO:18501 Boone County Law 1 FROM:UNKNOWN"
    INDEX 01 19:36:41
  TRACK 9 AUDIO
    TITLE "2020-07-29T21:36:03.182Z TO:7300 Department of Transportation - District 1 Highway Helper - Des Moines Area FROM:14948"
    INDEX 01 19:51:72
  TRACK 10 AUDIO
    TITLE "END"
    INDEX 01 19:54:04